<?xml version="1.0" encoding="UTF-8"?>
<svg xmlns="http://www.w3.org/2000/svg" version="1.1" viewBox="0 0 1036 1036">
  <defs>
    <style>
      .cls-1 {
        fill: #fffaf3;
        stroke: #0067ff;
        stroke-miterlimit: 10;
        stroke-width: 2px;
      }

      .cls-2 {
        mix-blend-mode: hard-light;
      }

      .cls-3 {
        fill: #0067ff;
        stroke-width: 0px;
      }

      .cls-4 {
        isolation: isolate;
      }
    </style>
  </defs>
  <g class="cls-4">
    <g id="Layer_1" data-name="Layer 1">
      <g>
        <g>
          <g>
            <path class="cls-3" d="M518,418.04c55.12,0,99.96,44.84,99.96,99.96s-44.84,99.96-99.96,99.96-99.96-44.84-99.96-99.96,44.84-99.96,99.96-99.96M518,416.04c-56.31,0-101.96,45.65-101.96,101.96s45.65,101.96,101.96,101.96,101.96-45.65,101.96-101.96-45.65-101.96-101.96-101.96h0Z"/>
            <path class="cls-3" d="M518,327.89c25.67,0,50.56,5.03,74,14.94,22.64,9.58,42.97,23.28,60.43,40.74,17.46,17.46,31.17,37.79,40.74,60.43,9.91,23.44,14.94,48.33,14.94,74s-5.03,50.56-14.94,74c-9.58,22.64-23.28,42.97-40.74,60.43-17.46,17.46-37.79,31.17-60.43,40.74-23.44,9.91-48.33,14.94-74,14.94s-50.56-5.03-74-14.94c-22.64-9.58-42.97-23.28-60.43-40.74-17.46-17.46-31.17-37.79-40.74-60.43-9.91-23.44-14.94-48.33-14.94-74s5.03-50.56,14.94-74c9.58-22.64,23.28-42.97,40.74-60.43,17.46-17.46,37.79-31.17,60.43-40.74,23.44-9.91,48.33-14.94,74-14.94M518,325.89c-106.1,0-192.11,86.01-192.11,192.11s86.01,192.11,192.11,192.11,192.11-86.01,192.11-192.11-86.01-192.11-192.11-192.11h0Z"/>
            <path class="cls-3" d="M518,238.11c37.79,0,74.44,7.4,108.94,21.99,33.33,14.1,63.26,34.28,88.97,59.98,25.7,25.7,45.89,55.64,59.98,88.97,14.59,34.5,21.99,71.16,21.99,108.94s-7.4,74.44-21.99,108.94c-14.1,33.33-34.28,63.26-59.98,88.97-25.7,25.7-55.64,45.89-88.97,59.98-34.5,14.59-71.16,21.99-108.94,21.99s-74.44-7.4-108.94-21.99c-33.33-14.1-63.26-34.28-88.97-59.98-25.7-25.7-45.89-55.64-59.98-88.97-14.59-34.5-21.99-71.16-21.99-108.94s7.4-74.44,21.99-108.94c14.1-33.33,34.28-63.26,59.98-88.97,25.7-25.7,55.64-45.89,88.97-59.98,34.5-14.59,71.16-21.99,108.94-21.99M518,236.11c-155.68,0-281.89,126.2-281.89,281.89s126.2,281.89,281.89,281.89,281.89-126.2,281.89-281.89-126.2-281.89-281.89-281.89h0Z"/>
            <path class="cls-3" d="M518,128.2c52.62,0,103.67,10.31,151.73,30.63,46.42,19.63,88.1,47.74,123.9,83.54,35.8,35.8,63.91,77.49,83.54,123.9,20.33,48.06,30.63,99.1,30.63,151.73s-10.31,103.67-30.63,151.73c-19.63,46.42-47.74,88.1-83.54,123.9-35.8,35.8-77.49,63.91-123.9,83.54-48.06,20.33-99.1,30.63-151.73,30.63s-103.67-10.31-151.73-30.63c-46.42-19.63-88.1-47.74-123.9-83.54-35.8-35.8-63.91-77.49-83.54-123.9-20.33-48.06-30.63-99.1-30.63-151.73s10.31-103.67,30.63-151.73c19.63-46.42,47.74-88.1,83.54-123.9,35.8-35.8,77.49-63.91,123.9-83.54,48.06-20.33,99.1-30.63,151.73-30.63M518,126.2c-216.39,0-391.8,175.42-391.8,391.8s175.42,391.8,391.8,391.8,391.8-175.42,391.8-391.8S734.39,126.2,518,126.2h0Z"/>
            <path class="cls-3" d="M518,2c69.66,0,137.24,13.64,200.85,40.55,61.44,25.99,116.63,63.19,164.02,110.58,47.39,47.39,84.6,102.57,110.58,164.02,26.91,63.61,40.55,131.19,40.55,200.85s-13.64,137.24-40.55,200.85c-25.99,61.44-63.19,116.63-110.58,164.02-47.39,47.39-102.57,84.6-164.02,110.58-63.61,26.91-131.19,40.55-200.85,40.55s-137.24-13.64-200.85-40.55c-61.44-25.99-116.63-63.19-164.02-110.58-47.39-47.39-84.6-102.57-110.58-164.02C15.64,655.24,2,587.66,2,518s13.64-137.24,40.55-200.85c25.99-61.44,63.19-116.63,110.58-164.02,47.39-47.39,102.57-84.6,164.02-110.58C380.76,15.64,448.34,2,518,2M518,0C231.92,0,0,231.92,0,518s231.92,518,518,518,518-231.92,518-518S804.08,0,518,0h0Z"/>
          </g>
          <circle class="cls-1" cx="808.59" cy="944.39" r="8.7"/>
          <circle class="cls-1" cx="262.66" cy="815.42" r="8.7"/>
          <circle class="cls-1" cx="491.97" cy="798.01" r="8.7"/>
          <circle class="cls-1" cx="682.68" cy="617" r="8.7"/>
          <circle class="cls-1" cx="402.48" cy="260.9" r="8.7"/>
          <circle class="cls-1" cx="56.96" cy="281.81" r="8.7"/>
        </g>
        <g class="cls-2">
          <g>
            <path class="cls-3" d="M518,418.04c55.12,0,99.96,44.84,99.96,99.96s-44.84,99.96-99.96,99.96-99.96-44.84-99.96-99.96,44.84-99.96,99.96-99.96M518,416.04c-56.31,0-101.96,45.65-101.96,101.96s45.65,101.96,101.96,101.96,101.96-45.65,101.96-101.96-45.65-101.96-101.96-101.96h0Z"/>
            <path class="cls-3" d="M518,327.89c25.67,0,50.56,5.03,74,14.94,22.64,9.58,42.97,23.28,60.43,40.74,17.46,17.46,31.17,37.79,40.74,60.43,9.91,23.44,14.94,48.33,14.94,74s-5.03,50.56-14.94,74c-9.58,22.64-23.28,42.97-40.74,60.43-17.46,17.46-37.79,31.17-60.43,40.74-23.44,9.91-48.33,14.94-74,14.94s-50.56-5.03-74-14.94c-22.64-9.58-42.97-23.28-60.43-40.74-17.46-17.46-31.17-37.79-40.74-60.43-9.91-23.44-14.94-48.33-14.94-74s5.03-50.56,14.94-74c9.58-22.64,23.28-42.97,40.74-60.43,17.46-17.46,37.79-31.17,60.43-40.74,23.44-9.91,48.33-14.94,74-14.94M518,325.89c-106.1,0-192.11,86.01-192.11,192.11s86.01,192.11,192.11,192.11,192.11-86.01,192.11-192.11-86.01-192.11-192.11-192.11h0Z"/>
            <path class="cls-3" d="M518,238.11c37.79,0,74.44,7.4,108.94,21.99,33.33,14.1,63.26,34.28,88.97,59.98,25.7,25.7,45.89,55.64,59.98,88.97,14.59,34.5,21.99,71.16,21.99,108.94s-7.4,74.44-21.99,108.94c-14.1,33.33-34.28,63.26-59.98,88.97-25.7,25.7-55.64,45.89-88.97,59.98-34.5,14.59-71.16,21.99-108.94,21.99s-74.44-7.4-108.94-21.99c-33.33-14.1-63.26-34.28-88.97-59.98-25.7-25.7-45.89-55.64-59.98-88.97-14.59-34.5-21.99-71.16-21.99-108.94s7.4-74.44,21.99-108.94c14.1-33.33,34.28-63.26,59.98-88.97,25.7-25.7,55.64-45.89,88.97-59.98,34.5-14.59,71.16-21.99,108.94-21.99M518,236.11c-155.68,0-281.89,126.2-281.89,281.89s126.2,281.89,281.89,281.89,281.89-126.2,281.89-281.89-126.2-281.89-281.89-281.89h0Z"/>
            <path class="cls-3" d="M518,128.2c52.62,0,103.67,10.31,151.73,30.63,46.42,19.63,88.1,47.74,123.9,83.54,35.8,35.8,63.91,77.49,83.54,123.9,20.33,48.06,30.63,99.1,30.63,151.73s-10.31,103.67-30.63,151.73c-19.63,46.42-47.74,88.1-83.54,123.9-35.8,35.8-77.49,63.91-123.9,83.54-48.06,20.33-99.1,30.63-151.73,30.63s-103.67-10.31-151.73-30.63c-46.42-19.63-88.1-47.74-123.9-83.54-35.8-35.8-63.91-77.49-83.54-123.9-20.33-48.06-30.63-99.1-30.63-151.73s10.31-103.67,30.63-151.73c19.63-46.42,47.74-88.1,83.54-123.9,35.8-35.8,77.49-63.91,123.9-83.54,48.06-20.33,99.1-30.63,151.73-30.63M518,126.2c-216.39,0-391.8,175.42-391.8,391.8s175.42,391.8,391.8,391.8,391.8-175.42,391.8-391.8S734.39,126.2,518,126.2h0Z"/>
            <path class="cls-3" d="M518,2c69.66,0,137.24,13.64,200.85,40.55,61.44,25.99,116.63,63.19,164.02,110.58,47.39,47.39,84.6,102.57,110.58,164.02,26.91,63.61,40.55,131.19,40.55,200.85s-13.64,137.24-40.55,200.85c-25.99,61.44-63.19,116.63-110.58,164.02-47.39,47.39-102.57,84.6-164.02,110.58-63.61,26.91-131.19,40.55-200.85,40.55s-137.24-13.64-200.85-40.55c-61.44-25.99-116.63-63.19-164.02-110.58-47.39-47.39-84.6-102.57-110.58-164.02C15.64,655.24,2,587.66,2,518s13.64-137.24,40.55-200.85c25.99-61.44,63.19-116.63,110.58-164.02,47.39-47.39,102.57-84.6,164.02-110.58C380.76,15.64,448.34,2,518,2M518,0C231.92,0,0,231.92,0,518s231.92,518,518,518,518-231.92,518-518S804.08,0,518,0h0Z"/>
          </g>
          <circle class="cls-1" cx="808.59" cy="944.39" r="8.7"/>
          <circle class="cls-1" cx="262.66" cy="815.42" r="8.7"/>
          <circle class="cls-1" cx="491.97" cy="798.01" r="8.7"/>
          <circle class="cls-1" cx="682.68" cy="617" r="8.7"/>
          <circle class="cls-1" cx="402.48" cy="260.9" r="8.7"/>
          <circle class="cls-1" cx="56.96" cy="281.81" r="8.7"/>
        </g>
      </g>
    </g>
  </g>
</svg>